{
	"asset":{
		"generator":"Khronos glTF Blender I/O v4.1.63",
		"version":"2.0"
	},
	"scene":0,
	"scenes":[
		{
			"name":"Scene",
			"nodes":[
				0
			]
		}
	],
	"nodes":[
		{
			"mesh":0,
			"name":"\u30c6\u30ad\u30b9\u30c8"
		}
	],
	"materials":[
		{
			"doubleSided":true,
			"name":"\u30de\u30c6\u30ea\u30a2\u30eb",
			"pbrMetallicRoughness":{
				"baseColorTexture":{
					"index":0
				},
				"metallicFactor":0,
				"roughnessFactor":0.5
			}
		}
	],
	"meshes":[
		{
			"name":"\u30c6\u30ad\u30b9\u30c8",
			"primitives":[
				{
					"attributes":{
						"POSITION":0,
						"NORMAL":1,
						"TEXCOORD_0":2
					},
					"indices":3,
					"material":0
				}
			]
		}
	],
	"textures":[
		{
			"sampler":0,
			"source":0
		}
	],
	"images":[
		{
			"mimeType":"image/png",
			"name":"white",
			"uri":"white.png"
		}
	],
	"accessors":[
		{
			"bufferView":0,
			"componentType":5126,
			"count":1481,
			"max":[
				3.239499807357788,
				0,
				0.0860000029206276
			],
			"min":[
				-3.2044999599456787,
				0,
				-0.8440000414848328
			],
			"type":"VEC3"
		},
		{
			"bufferView":1,
			"componentType":5126,
			"count":1481,
			"type":"VEC3"
		},
		{
			"bufferView":2,
			"componentType":5126,
			"count":1481,
			"type":"VEC2"
		},
		{
			"bufferView":3,
			"componentType":5123,
			"count":4368,
			"type":"SCALAR"
		}
	],
	"bufferViews":[
		{
			"buffer":0,
			"byteLength":17772,
			"byteOffset":0,
			"target":34962
		},
		{
			"buffer":0,
			"byteLength":17772,
			"byteOffset":17772,
			"target":34962
		},
		{
			"buffer":0,
			"byteLength":11848,
			"byteOffset":35544,
			"target":34962
		},
		{
			"buffer":0,
			"byteLength":8736,
			"byteOffset":47392,
			"target":34963
		}
	],
	"samplers":[
		{
			"magFilter":9729,
			"minFilter":9987
		}
	],
	"buffers":[
		{
			"byteLength":56128,
			"uri":"CameraShakeOn.bin"
		}
	]
}
