{
	"asset":{
		"generator":"Khronos glTF Blender I/O v4.1.62",
		"version":"2.0"
	},
	"scene":0,
	"scenes":[
		{
			"name":"Scene",
			"nodes":[
				0
			]
		}
	],
	"nodes":[
		{
			"mesh":0,
			"name":"\u30c6\u30ad\u30b9\u30c8"
		}
	],
	"materials":[
		{
			"doubleSided":true,
			"name":"\u30de\u30c6\u30ea\u30a2\u30eb",
			"pbrMetallicRoughness":{
				"baseColorTexture":{
					"index":0
				},
				"metallicFactor":0,
				"roughnessFactor":0.5
			}
		}
	],
	"meshes":[
		{
			"name":"\u30c6\u30ad\u30b9\u30c8",
			"primitives":[
				{
					"attributes":{
						"POSITION":0,
						"NORMAL":1,
						"TEXCOORD_0":2
					},
					"indices":3,
					"material":0
				}
			]
		}
	],
	"textures":[
		{
			"sampler":0,
			"source":0
		}
	],
	"images":[
		{
			"mimeType":"image/png",
			"name":"white",
			"uri":"white.png"
		}
	],
	"accessors":[
		{
			"bufferView":0,
			"componentType":5126,
			"count":3588,
			"max":[
				3.3970000743865967,
				0.10000000149011612,
				0.05900000408291817
			],
			"min":[
				-3.447999954223633,
				-0.10000000149011612,
				-0.8300000429153442
			],
			"type":"VEC3"
		},
		{
			"bufferView":1,
			"componentType":5126,
			"count":3588,
			"type":"VEC3"
		},
		{
			"bufferView":2,
			"componentType":5126,
			"count":3588,
			"type":"VEC2"
		},
		{
			"bufferView":3,
			"componentType":5123,
			"count":10440,
			"type":"SCALAR"
		}
	],
	"bufferViews":[
		{
			"buffer":0,
			"byteLength":43056,
			"byteOffset":0,
			"target":34962
		},
		{
			"buffer":0,
			"byteLength":43056,
			"byteOffset":43056,
			"target":34962
		},
		{
			"buffer":0,
			"byteLength":28704,
			"byteOffset":86112,
			"target":34962
		},
		{
			"buffer":0,
			"byteLength":20880,
			"byteOffset":114816,
			"target":34963
		}
	],
	"samplers":[
		{
			"magFilter":9729,
			"minFilter":9987
		}
	],
	"buffers":[
		{
			"byteLength":135696,
			"uri":"GameOverLogo.bin"
		}
	]
}
