{
	"asset":{
		"generator":"Khronos glTF Blender I/O v4.1.62",
		"version":"2.0"
	},
	"scene":0,
	"scenes":[
		{
			"name":"Scene",
			"nodes":[
				0
			]
		}
	],
	"nodes":[
		{
			"mesh":0,
			"name":"\u30c6\u30ad\u30b9\u30c8"
		}
	],
	"materials":[
		{
			"doubleSided":true,
			"name":"\u30de\u30c6\u30ea\u30a2\u30eb",
			"pbrMetallicRoughness":{
				"baseColorTexture":{
					"index":0
				},
				"metallicFactor":0,
				"roughnessFactor":0.5
			}
		}
	],
	"meshes":[
		{
			"name":"\u30c6\u30ad\u30b9\u30c8",
			"primitives":[
				{
					"attributes":{
						"POSITION":0,
						"NORMAL":1,
						"TEXCOORD_0":2
					},
					"indices":3,
					"material":0
				}
			]
		}
	],
	"textures":[
		{
			"sampler":0,
			"source":0
		}
	],
	"images":[
		{
			"mimeType":"image/png",
			"name":"white",
			"uri":"white.png"
		}
	],
	"accessors":[
		{
			"bufferView":0,
			"componentType":5126,
			"count":3445,
			"max":[
				2.930999994277954,
				0.10000000149011612,
				0.05900000408291817
			],
			"min":[
				-2.947999954223633,
				-0.10000000149011612,
				-0.8300000429153442
			],
			"type":"VEC3"
		},
		{
			"bufferView":1,
			"componentType":5126,
			"count":3445,
			"type":"VEC3"
		},
		{
			"bufferView":2,
			"componentType":5126,
			"count":3445,
			"type":"VEC2"
		},
		{
			"bufferView":3,
			"componentType":5123,
			"count":10080,
			"type":"SCALAR"
		}
	],
	"bufferViews":[
		{
			"buffer":0,
			"byteLength":41340,
			"byteOffset":0,
			"target":34962
		},
		{
			"buffer":0,
			"byteLength":41340,
			"byteOffset":41340,
			"target":34962
		},
		{
			"buffer":0,
			"byteLength":27560,
			"byteOffset":82680,
			"target":34962
		},
		{
			"buffer":0,
			"byteLength":20160,
			"byteOffset":110240,
			"target":34963
		}
	],
	"samplers":[
		{
			"magFilter":9729,
			"minFilter":9987
		}
	],
	"buffers":[
		{
			"byteLength":130400,
			"uri":"GameClearLogo.bin"
		}
	]
}
