{
	"asset":{
		"generator":"Khronos glTF Blender I/O v4.1.62",
		"version":"2.0"
	},
	"scene":0,
	"scenes":[
		{
			"name":"Scene",
			"nodes":[
				0
			]
		}
	],
	"nodes":[
		{
			"mesh":0,
			"name":"\u30c6\u30ad\u30b9\u30c8"
		}
	],
	"materials":[
		{
			"doubleSided":true,
			"name":"\u30de\u30c6\u30ea\u30a2\u30eb",
			"pbrMetallicRoughness":{
				"baseColorTexture":{
					"index":0
				},
				"metallicFactor":0,
				"roughnessFactor":0.5
			}
		}
	],
	"meshes":[
		{
			"name":"\u30c6\u30ad\u30b9\u30c8",
			"primitives":[
				{
					"attributes":{
						"POSITION":0,
						"NORMAL":1,
						"TEXCOORD_0":2
					},
					"indices":3,
					"material":0
				}
			]
		}
	],
	"textures":[
		{
			"sampler":0,
			"source":0
		}
	],
	"images":[
		{
			"mimeType":"image/png",
			"name":"white",
			"uri":"white.png"
		}
	],
	"accessors":[
		{
			"bufferView":0,
			"componentType":5126,
			"count":2600,
			"max":[
				2.131500244140625,
				0.09999999403953552,
				0.009000000543892384
			],
			"min":[
				-2.061500310897827,
				-0.09999999403953552,
				-0.6860000491142273
			],
			"type":"VEC3"
		},
		{
			"bufferView":1,
			"componentType":5126,
			"count":2600,
			"type":"VEC3"
		},
		{
			"bufferView":2,
			"componentType":5126,
			"count":2600,
			"type":"VEC2"
		},
		{
			"bufferView":3,
			"componentType":5123,
			"count":7668,
			"type":"SCALAR"
		}
	],
	"bufferViews":[
		{
			"buffer":0,
			"byteLength":31200,
			"byteOffset":0,
			"target":34962
		},
		{
			"buffer":0,
			"byteLength":31200,
			"byteOffset":31200,
			"target":34962
		},
		{
			"buffer":0,
			"byteLength":20800,
			"byteOffset":62400,
			"target":34962
		},
		{
			"buffer":0,
			"byteLength":15336,
			"byteOffset":83200,
			"target":34963
		}
	],
	"samplers":[
		{
			"magFilter":9729,
			"minFilter":9987
		}
	],
	"buffers":[
		{
			"byteLength":98536,
			"uri":"PressToA.bin"
		}
	]
}
