{
	"asset":{
		"generator":"Khronos glTF Blender I/O v4.1.63",
		"version":"2.0"
	},
	"scene":0,
	"scenes":[
		{
			"name":"Scene",
			"nodes":[
				0
			]
		}
	],
	"nodes":[
		{
			"mesh":0,
			"name":"X\u30dc\u30bf\u30f3\u3067\u63fa\u308c\u306e\u5207\u308a\u66ff\u3048 : ON"
		}
	],
	"materials":[
		{
			"doubleSided":true,
			"name":"\u30de\u30c6\u30ea\u30a2\u30eb.001",
			"pbrMetallicRoughness":{
				"baseColorTexture":{
					"index":0
				},
				"metallicFactor":0,
				"roughnessFactor":0.5
			}
		}
	],
	"meshes":[
		{
			"name":"X\u30dc\u30bf\u30f3\u3067\u63fa\u308c\u306e\u5207\u308a\u66ff\u3048 : ON",
			"primitives":[
				{
					"attributes":{
						"POSITION":0,
						"NORMAL":1,
						"TEXCOORD_0":2
					},
					"indices":3,
					"material":0
				}
			]
		}
	],
	"textures":[
		{
			"sampler":0,
			"source":0
		}
	],
	"images":[
		{
			"mimeType":"image/png",
			"name":"white",
			"uri":"white.png"
		}
	],
	"accessors":[
		{
			"bufferView":0,
			"componentType":5126,
			"count":3822,
			"max":[
				3.2209999561309814,
				0.09999999403953552,
				0.08100000023841858
			],
			"min":[
				-3.168999671936035,
				-0.09999999403953552,
				-0.8410000205039978
			],
			"type":"VEC3"
		},
		{
			"bufferView":1,
			"componentType":5126,
			"count":3822,
			"type":"VEC3"
		},
		{
			"bufferView":2,
			"componentType":5126,
			"count":3822,
			"type":"VEC2"
		},
		{
			"bufferView":3,
			"componentType":5123,
			"count":11100,
			"type":"SCALAR"
		}
	],
	"bufferViews":[
		{
			"buffer":0,
			"byteLength":45864,
			"byteOffset":0,
			"target":34962
		},
		{
			"buffer":0,
			"byteLength":45864,
			"byteOffset":45864,
			"target":34962
		},
		{
			"buffer":0,
			"byteLength":30576,
			"byteOffset":91728,
			"target":34962
		},
		{
			"buffer":0,
			"byteLength":22200,
			"byteOffset":122304,
			"target":34963
		}
	],
	"samplers":[
		{
			"magFilter":9729,
			"minFilter":9987
		}
	],
	"buffers":[
		{
			"byteLength":144504,
			"uri":"PressToA.bin"
		}
	]
}
