{
	"asset":{
		"generator":"Khronos glTF Blender I/O v4.1.62",
		"version":"2.0"
	},
	"scene":0,
	"scenes":[
		{
			"name":"Scene",
			"nodes":[
				0
			]
		}
	],
	"nodes":[
		{
			"mesh":0,
			"name":"\u30c6\u30ad\u30b9\u30c8"
		}
	],
	"materials":[
		{
			"doubleSided":true,
			"name":"\u30de\u30c6\u30ea\u30a2\u30eb.001",
			"pbrMetallicRoughness":{
				"baseColorTexture":{
					"index":0
				},
				"metallicFactor":0,
				"roughnessFactor":0.5
			}
		}
	],
	"meshes":[
		{
			"name":"\u30c6\u30ad\u30b9\u30c8",
			"primitives":[
				{
					"attributes":{
						"POSITION":0,
						"NORMAL":1,
						"TEXCOORD_0":2
					},
					"indices":3,
					"material":0
				}
			]
		}
	],
	"textures":[
		{
			"sampler":0,
			"source":0
		}
	],
	"images":[
		{
			"mimeType":"image/png",
			"name":"white",
			"uri":"white.png"
		}
	],
	"accessors":[
		{
			"bufferView":0,
			"componentType":5126,
			"count":4546,
			"max":[
				3.4095001220703125,
				0.09999999403953552,
				0.009000000543892384
			],
			"min":[
				-3.37250018119812,
				-0.09999999403953552,
				-0.6910000443458557
			],
			"type":"VEC3"
		},
		{
			"bufferView":1,
			"componentType":5126,
			"count":4546,
			"type":"VEC3"
		},
		{
			"bufferView":2,
			"componentType":5126,
			"count":4546,
			"type":"VEC2"
		},
		{
			"bufferView":3,
			"componentType":5123,
			"count":13416,
			"type":"SCALAR"
		}
	],
	"bufferViews":[
		{
			"buffer":0,
			"byteLength":54552,
			"byteOffset":0,
			"target":34962
		},
		{
			"buffer":0,
			"byteLength":54552,
			"byteOffset":54552,
			"target":34962
		},
		{
			"buffer":0,
			"byteLength":36368,
			"byteOffset":109104,
			"target":34962
		},
		{
			"buffer":0,
			"byteLength":26832,
			"byteOffset":145472,
			"target":34963
		}
	],
	"samplers":[
		{
			"magFilter":9729,
			"minFilter":9987
		}
	],
	"buffers":[
		{
			"byteLength":172304,
			"uri":"PressBToGuide.bin"
		}
	]
}
