{
	"asset":{
		"generator":"Khronos glTF Blender I/O v4.1.63",
		"version":"2.0"
	},
	"scene":0,
	"scenes":[
		{
			"name":"Scene",
			"nodes":[
				0
			]
		}
	],
	"nodes":[
		{
			"mesh":0,
			"name":"Body.204"
		}
	],
	"materials":[
		{
			"doubleSided":true,
			"name":"\u30de\u30c6\u30ea\u30a2\u30eb.002",
			"pbrMetallicRoughness":{
				"baseColorTexture":{
					"index":0
				},
				"metallicFactor":0,
				"roughnessFactor":0.5
			}
		}
	],
	"meshes":[
		{
			"name":"\u7acb\u65b9\u4f53.204",
			"primitives":[
				{
					"attributes":{
						"POSITION":0,
						"NORMAL":1,
						"TEXCOORD_0":2
					},
					"indices":3,
					"material":0
				}
			]
		}
	],
	"textures":[
		{
			"sampler":0,
			"source":0
		}
	],
	"images":[
		{
			"mimeType":"image/png",
			"name":"Voxel_Human_Head",
			"uri":"Voxel_Human_Head.png"
		}
	],
	"accessors":[
		{
			"bufferView":0,
			"componentType":5126,
			"count":8256,
			"max":[
				0.6000000238418579,
				1.399999976158142,
				1.0757347345352173
			],
			"min":[
				-0.8000001311302185,
				-1,
				-1.0589879751205444
			],
			"type":"VEC3"
		},
		{
			"bufferView":1,
			"componentType":5126,
			"count":8256,
			"type":"VEC3"
		},
		{
			"bufferView":2,
			"componentType":5126,
			"count":8256,
			"type":"VEC2"
		},
		{
			"bufferView":3,
			"componentType":5123,
			"count":12384,
			"type":"SCALAR"
		}
	],
	"bufferViews":[
		{
			"buffer":0,
			"byteLength":99072,
			"byteOffset":0,
			"target":34962
		},
		{
			"buffer":0,
			"byteLength":99072,
			"byteOffset":99072,
			"target":34962
		},
		{
			"buffer":0,
			"byteLength":66048,
			"byteOffset":198144,
			"target":34962
		},
		{
			"buffer":0,
			"byteLength":24768,
			"byteOffset":264192,
			"target":34963
		}
	],
	"samplers":[
		{
			"magFilter":9729,
			"minFilter":9987
		}
	],
	"buffers":[
		{
			"byteLength":288960,
			"uri":"Voxel_Human.bin"
		}
	]
}
