{
	"asset":{
		"generator":"Khronos glTF Blender I/O v4.1.63",
		"version":"2.0"
	},
	"scene":0,
	"scenes":[
		{
			"name":"Scene",
			"nodes":[
				0
			]
		}
	],
	"nodes":[
		{
			"mesh":0,
			"name":"Body"
		}
	],
	"materials":[
		{
			"doubleSided":true,
			"name":"\u30de\u30c6\u30ea\u30a2\u30eb.002",
			"pbrMetallicRoughness":{
				"baseColorTexture":{
					"index":0
				},
				"metallicFactor":0,
				"roughnessFactor":0.5
			}
		},
		{
			"doubleSided":true,
			"name":"\u30de\u30c6\u30ea\u30a2\u30eb.006",
			"pbrMetallicRoughness":{
				"baseColorTexture":{
					"index":1
				},
				"metallicFactor":0,
				"roughnessFactor":0.5
			}
		},
		{
			"doubleSided":true,
			"name":"\u30de\u30c6\u30ea\u30a2\u30eb.004",
			"pbrMetallicRoughness":{
				"baseColorTexture":{
					"index":2
				},
				"metallicFactor":0,
				"roughnessFactor":0.5
			}
		},
		{
			"doubleSided":true,
			"name":"\u30de\u30c6\u30ea\u30a2\u30eb.005",
			"pbrMetallicRoughness":{
				"baseColorTexture":{
					"index":3
				},
				"metallicFactor":0,
				"roughnessFactor":0.5
			}
		},
		{
			"doubleSided":true,
			"name":"\u30de\u30c6\u30ea\u30a2\u30eb.003",
			"pbrMetallicRoughness":{
				"baseColorTexture":{
					"index":4
				},
				"metallicFactor":0,
				"roughnessFactor":0.5
			}
		},
		{
			"doubleSided":true,
			"name":"\u30de\u30c6\u30ea\u30a2\u30eb",
			"pbrMetallicRoughness":{
				"baseColorTexture":{
					"index":5
				},
				"metallicFactor":0,
				"roughnessFactor":0.5
			}
		}
	],
	"meshes":[
		{
			"name":"\u7acb\u65b9\u4f53.1647",
			"primitives":[
				{
					"attributes":{
						"POSITION":0,
						"NORMAL":1,
						"TEXCOORD_0":2
					},
					"indices":3,
					"material":0
				},
				{
					"attributes":{
						"POSITION":4,
						"NORMAL":5,
						"TEXCOORD_0":6
					},
					"indices":7,
					"material":1
				},
				{
					"attributes":{
						"POSITION":8,
						"NORMAL":9,
						"TEXCOORD_0":10
					},
					"indices":7,
					"material":2
				},
				{
					"attributes":{
						"POSITION":11,
						"NORMAL":12,
						"TEXCOORD_0":13
					},
					"indices":14,
					"material":3
				},
				{
					"attributes":{
						"POSITION":15,
						"NORMAL":16,
						"TEXCOORD_0":17
					},
					"indices":14,
					"material":4
				},
				{
					"attributes":{
						"POSITION":18,
						"NORMAL":19,
						"TEXCOORD_0":20
					},
					"indices":21,
					"material":5
				}
			]
		}
	],
	"textures":[
		{
			"sampler":0,
			"source":0
		},
		{
			"sampler":0,
			"source":0
		},
		{
			"sampler":0,
			"source":0
		},
		{
			"sampler":0,
			"source":0
		},
		{
			"sampler":0,
			"source":0
		},
		{
			"sampler":0,
			"source":1
		}
	],
	"images":[
		{
			"mimeType":"image/png",
			"name":"Voxel_Human_Body",
			"uri":"Voxel_Human_Body.png"
		},
		{
			"mimeType":"image/png",
			"name":"Voxel_Human_Head",
			"uri":"Voxel_Human_Head.png"
		}
	],
	"accessors":[
		{
			"bufferView":0,
			"componentType":5126,
			"count":1152,
			"max":[
				0.20000000298023224,
				0.4000000059604645,
				0.4000000059604645
			],
			"min":[
				-0.4000000059604645,
				-0.4000000059604645,
				-0.4000000059604645
			],
			"type":"VEC3"
		},
		{
			"bufferView":1,
			"componentType":5126,
			"count":1152,
			"type":"VEC3"
		},
		{
			"bufferView":2,
			"componentType":5126,
			"count":1152,
			"type":"VEC2"
		},
		{
			"bufferView":3,
			"componentType":5123,
			"count":1728,
			"type":"SCALAR"
		},
		{
			"bufferView":4,
			"componentType":5126,
			"count":96,
			"max":[
				0.20000000298023224,
				-0.4000000059604645,
				0.4000000059604645
			],
			"min":[
				-0.20000000298023224,
				-1,
				0.20000000298023224
			],
			"type":"VEC3"
		},
		{
			"bufferView":5,
			"componentType":5126,
			"count":96,
			"type":"VEC3"
		},
		{
			"bufferView":6,
			"componentType":5126,
			"count":96,
			"type":"VEC2"
		},
		{
			"bufferView":7,
			"componentType":5123,
			"count":144,
			"type":"SCALAR"
		},
		{
			"bufferView":8,
			"componentType":5126,
			"count":96,
			"max":[
				0.20000000298023224,
				-0.4000000059604645,
				-0.20000000298023224
			],
			"min":[
				-0.20000000298023224,
				-1,
				-0.4000000059604645
			],
			"type":"VEC3"
		},
		{
			"bufferView":9,
			"componentType":5126,
			"count":96,
			"type":"VEC3"
		},
		{
			"bufferView":10,
			"componentType":5126,
			"count":96,
			"type":"VEC2"
		},
		{
			"bufferView":11,
			"componentType":5126,
			"count":96,
			"max":[
				0,
				0.4000000059604645,
				1.2000000476837158
			],
			"min":[
				-0.20000000298023224,
				0.20000000298023224,
				0.4000000059604645
			],
			"type":"VEC3"
		},
		{
			"bufferView":12,
			"componentType":5126,
			"count":96,
			"type":"VEC3"
		},
		{
			"bufferView":13,
			"componentType":5126,
			"count":96,
			"type":"VEC2"
		},
		{
			"bufferView":14,
			"componentType":5123,
			"count":144,
			"type":"SCALAR"
		},
		{
			"bufferView":15,
			"componentType":5126,
			"count":96,
			"max":[
				0,
				0.4000000059604645,
				-0.4000000059604645
			],
			"min":[
				-0.20000000298023224,
				0.20000000298023224,
				-1.2000000476837158
			],
			"type":"VEC3"
		},
		{
			"bufferView":16,
			"componentType":5126,
			"count":96,
			"type":"VEC3"
		},
		{
			"bufferView":17,
			"componentType":5126,
			"count":96,
			"type":"VEC2"
		},
		{
			"bufferView":18,
			"componentType":5126,
			"count":6720,
			"max":[
				0.6000000238418579,
				1.399999976158142,
				0.800000011920929
			],
			"min":[
				-0.8000001311302185,
				0.4000000059604645,
				-0.800000011920929
			],
			"type":"VEC3"
		},
		{
			"bufferView":19,
			"componentType":5126,
			"count":6720,
			"type":"VEC3"
		},
		{
			"bufferView":20,
			"componentType":5126,
			"count":6720,
			"type":"VEC2"
		},
		{
			"bufferView":21,
			"componentType":5123,
			"count":10080,
			"type":"SCALAR"
		}
	],
	"bufferViews":[
		{
			"buffer":0,
			"byteLength":13824,
			"byteOffset":0,
			"target":34962
		},
		{
			"buffer":0,
			"byteLength":13824,
			"byteOffset":13824,
			"target":34962
		},
		{
			"buffer":0,
			"byteLength":9216,
			"byteOffset":27648,
			"target":34962
		},
		{
			"buffer":0,
			"byteLength":3456,
			"byteOffset":36864,
			"target":34963
		},
		{
			"buffer":0,
			"byteLength":1152,
			"byteOffset":40320,
			"target":34962
		},
		{
			"buffer":0,
			"byteLength":1152,
			"byteOffset":41472,
			"target":34962
		},
		{
			"buffer":0,
			"byteLength":768,
			"byteOffset":42624,
			"target":34962
		},
		{
			"buffer":0,
			"byteLength":288,
			"byteOffset":43392,
			"target":34963
		},
		{
			"buffer":0,
			"byteLength":1152,
			"byteOffset":43680,
			"target":34962
		},
		{
			"buffer":0,
			"byteLength":1152,
			"byteOffset":44832,
			"target":34962
		},
		{
			"buffer":0,
			"byteLength":768,
			"byteOffset":45984,
			"target":34962
		},
		{
			"buffer":0,
			"byteLength":1152,
			"byteOffset":46752,
			"target":34962
		},
		{
			"buffer":0,
			"byteLength":1152,
			"byteOffset":47904,
			"target":34962
		},
		{
			"buffer":0,
			"byteLength":768,
			"byteOffset":49056,
			"target":34962
		},
		{
			"buffer":0,
			"byteLength":288,
			"byteOffset":49824,
			"target":34963
		},
		{
			"buffer":0,
			"byteLength":1152,
			"byteOffset":50112,
			"target":34962
		},
		{
			"buffer":0,
			"byteLength":1152,
			"byteOffset":51264,
			"target":34962
		},
		{
			"buffer":0,
			"byteLength":768,
			"byteOffset":52416,
			"target":34962
		},
		{
			"buffer":0,
			"byteLength":80640,
			"byteOffset":53184,
			"target":34962
		},
		{
			"buffer":0,
			"byteLength":80640,
			"byteOffset":133824,
			"target":34962
		},
		{
			"buffer":0,
			"byteLength":53760,
			"byteOffset":214464,
			"target":34962
		},
		{
			"buffer":0,
			"byteLength":20160,
			"byteOffset":268224,
			"target":34963
		}
	],
	"samplers":[
		{
			"magFilter":9729,
			"minFilter":9987
		}
	],
	"buffers":[
		{
			"byteLength":288384,
			"uri":"Voxel_Human.bin"
		}
	]
}
